<?xml version="1.0" standalone="no"?>
<!DOCTYPE svg PUBLIC "-//W3C//DTD SVG 20010904//EN"
 "http://www.w3.org/TR/2001/REC-SVG-20010904/DTD/svg10.dtd">
<svg version="1.0" xmlns="http://www.w3.org/2000/svg"
 width="1080.000000pt" height="1080.000000pt" viewBox="0 0 1080.000000 1080.000000"
 preserveAspectRatio="xMidYMid meet">
<metadata>
Created by potrace 1.14, written by Peter Selinger 2001-2017
</metadata>
<g transform="translate(0.000000,1080.000000) scale(0.100000,-0.100000)"
fill="#000000" stroke="none">
<path d="M1800 9225 l0 -225 -225 0 -225 0 0 -675 0 -675 225 0 225 0 0 -1575
0 -1575 225 0 225 0 0 -225 0 -225 225 0 225 0 0 -225 0 -225 -225 0 -225 0 0
-225 0 -225 -225 0 -225 0 0 -1350 0 -1350 225 0 225 0 0 -225 0 -225 2700 0
2700 0 0 1575 0 1575 -225 0 -225 0 0 225 0 225 450 0 450 0 0 225 0 225 225
0 225 0 0 1800 0 1800 225 0 225 0 0 675 0 675 -225 0 -225 0 0 225 0 225
-900 0 -900 0 0 -225 0 -225 -1350 0 -1350 0 0 225 0 225 -1125 0 -1125 0 0
-225z m5400 -900 l0 -225 450 0 450 0 0 -2025 0 -2025 -450 0 -450 0 0 -225 0
-225 -225 0 -225 0 0 -225 0 -225 -225 0 -225 0 0 -225 0 -225 -225 0 -225 0
0 225 0 225 -225 0 -225 0 0 -225 0 -225 -450 0 -450 0 0 225 0 225 -225 0
-225 0 0 225 0 225 -450 0 -450 0 0 225 0 225 -225 0 -225 0 0 225 0 225 -225
0 -225 0 0 1575 0 1575 225 0 225 0 0 225 0 225 450 0 450 0 0 225 0 225 1800
0 1800 0 0 -225z m-1800 -6300 l0 -225 225 0 225 0 0 -675 0 -675 -900 0 -900
0 0 675 0 675 225 0 225 0 0 225 0 225 450 0 450 0 0 -225z"/>
<path d="M4950 5850 l0 -450 225 0 225 0 0 450 0 450 -225 0 -225 0 0 -450z"/>
<path d="M6750 5850 l0 -450 225 0 225 0 0 450 0 450 -225 0 -225 0 0 -450z"/>
</g>
</svg>
